<svg width="61" height="62" fill="none" xmlns="http://www.w3.org/2000/svg"><g clip-path="url(#clip0)"><path opacity=".5" d="M30.445 9.086v17.245l14.964-8.64V.445L30.445 9.086z" fill="#13A049"/><path opacity=".5" d="M30.445 9.086L15.48.446v17.28l14.964 8.641V9.086z" fill="#A2CC39"/><path opacity=".9" d="M45.409.445L30.445 9.086 15.48.446.517 9.085l29.928 17.281 29.91-17.281L45.41.446z" fill="url(#paint0_linear)"/><path d="M30.445 26.367L.517 9.086v17.281l14.964 8.641v17.264l14.964 8.64 14.964-8.64V35.008l14.946-8.64V9.085l-29.91 17.281z" fill="url(#paint1_linear)"/><path d="M30.445 26.367v34.545l14.964-8.64V35.008l14.946-8.64V9.085l-29.91 17.281z" fill="url(#paint2_linear)"/><path opacity=".05" d="M30.445 43.63v17.282l14.964-8.64-14.964-8.641z" fill="#231F20"/><path opacity=".1" d="M30.445 60.948V43.667l-14.964 8.64 14.964 8.641z" fill="#231F20"/><path opacity=".05" d="M15.481 17.727L.517 26.367l14.964 8.641 14.964-8.64-14.964-8.641zm29.928 0l-14.964 8.64 14.964 8.641 14.946-8.64-14.946-8.641z" fill="#231F20"/></g><defs><linearGradient id="paint0_linear" x1="60.362" y1="13.404" x2=".517" y2="13.404" gradientUnits="userSpaceOnUse"><stop stop-color="#37BDA6"/><stop offset="1" stop-color="#8AD3B8"/></linearGradient><linearGradient id="paint1_linear" x1="60.362" y1="34.998" x2=".517" y2="34.998" gradientUnits="userSpaceOnUse"><stop offset=".5" stop-color="#4BB6AD"/><stop offset="1" stop-color="#78BBC1"/></linearGradient><linearGradient id="paint2_linear" x1="30.439" y1="34.998" x2="60.362" y2="34.998" gradientUnits="userSpaceOnUse"><stop stop-color="#4379A7"/><stop offset="1" stop-color="#7CC9B8"/></linearGradient><clipPath id="clip0"><path fill="#fff" transform="translate(.517 .445)" d="M0 0h60v60.703H0z"/></clipPath></defs></svg>